<?xml version="1.0" encoding="UTF-8"?>
<svg id="_レイヤー_1" data-name="レイヤー 1" xmlns="http://www.w3.org/2000/svg" xmlns:xlink="http://www.w3.org/1999/xlink" viewBox="0 0 198.23 183.19">
  <defs>
    <style>
      .cls-1 {
        fill: none;
      }

      .cls-2 {
        clip-path: url(#clippath);
      }
    </style>
    <clipPath id="clippath">
      <rect class="cls-1" width="198.23" height="183.19"/>
    </clipPath>
  </defs>
  <g class="cls-2">
    <g>
      <g id="_なごみ" data-name="なごみ">
        <path d="M50.04,109.31c0,1.65-.78,2.59-2.73,3.38-2.08.79-5.53,1.65-9.63,2.73-3.64,9.41-7.35,18.68-10.48,25.93-1.17,2.66-1.89,3.88-2.6,4.53-.46.36-1.24.57-1.69.57-.98,0-1.63-.43-2.02-.93-.39-.43-.91-1.01-.91-2.3,0-1.22,1.17-3.09,2.15-4.74,3.71-6.39,7.29-13.15,10.74-21.84-1.56.22-4.43.65-5.92.65-1.76,0-3.12-.22-4.23-.93-1.56-.93-2.93-2.37-3.84-4.6-.2-.5-.26-.86-.26-1.22s.33-.43.46-.43c.2,0,.33.07.72.43.98.86,1.89,1.44,2.93,1.72,1.43.36,2.41.36,3.19.36,2.15,0,5.4-.57,8.79-1.37,1.76-5.17,2.15-7.47,2.15-9.05,0-1.72-.46-2.16-3.91-3.59-.33-.14-.52-.36-.52-.65s.26-.72.65-.93c.85-.5,1.69-.72,2.86-.72,1.95,0,4.88,1.15,6.51,2.37,1.37,1.01,1.43,1.8,1.43,2.66,0,.79-.26,1.36-.85,1.87-.91.79-1.56,2.01-3.25,6.61,2.21-.79,3.12-1.37,4.3-2.16,1.11-.72,2.08-.93,2.73-.93,2.08.14,3.25,1.58,3.25,2.59ZM51.93,118.01c-1.04-.07-2.34,0-3.06.07-.52.07-.91.14-1.24.14-.39,0-.65-.14-.65-.5,0-.43.33-.72.78-.93,2.15-1.15,4.69-1.44,6.77-1.44,3.64,0,8.01,1.15,11,3.16,2.28,1.51,2.99,3.16,2.99,4.67,0,1.65-.65,2.8-2.28,2.8-.78,0-1.95-.65-2.54-1.15-2.47-2.23-3.84-2.51-5.08-2.51-1.3,0-2.02.29-2.93.93-1.69,1.08-5.66,9.41-5.66,11.93,0,1.8,3.78-.14,5.47,6.47,10.02,3.74,12.69,6.68,12.69,9.48,0,1.51-.59,3.02-2.54,3.16-.91.07-2.21-.36-3.77-2.01-.91-.93-2.86-3.09-6.12-5.03.07,3.38-1.11,6.39-3.25,7.9-2.02,1.51-4.43,2.01-7.55,2.01s-5.86-1.29-7.42-2.73c-1.56-1.36-2.6-3.3-2.6-5.46,0-2.59,1.24-4.74,2.73-5.96,2.34-1.87,5.21-2.59,7.81-2.59,1.04,0,3.19.07,4.69.36-.26-3.81-.46-7.61-.46-10.7,0-6.18,4.36-8.84,8.66-9.91-2.02-1.44-4.36-2.01-6.44-2.16ZM44.64,144.09c-2.34,0-4.43.29-5.6,1.15-.98.72-1.63,1.94-1.63,3.02,0,1.44.65,2.59,1.63,3.3,1.11.72,2.8,1.15,4.62,1.15,2.08,0,4.36-.5,5.47-1.72,1.04-1.22,1.43-2.66,1.43-4.67,0-.29,0-.65-.06-1.01-2.47-.93-4.17-1.22-5.86-1.22Z"/>
        <path d="M81.97,141.21c-.03,2.59,1.17,5.24,3.45,6.61,3.25,1.94,7.94,2.59,12.63,2.59,5.99,0,8.98-.79,11.45-1.51,1.11-.29,2.8-.57,4.1-.57,3.84,0,5.14,2.23,5.14,3.81s-1.63,3.31-3.84,3.74c-1.04.22-3.25.65-6.7.93-3.19.29-6.38.36-8.4.36-4.36,0-9.11-.93-12.3-2.37-2.6-1.15-4.62-2.95-6.05-5.03-1.5-2.08-1.95-4.17-1.95-7.26s3.71-9.51,3.97-9.55c.32-.06-1.48,6.3-1.5,8.26ZM84.05,110.54c1.37,2.01,4.23,3.02,10.22,3.02,3.71,0,6.83-.57,11-2.01.65-.22,1.95-.36,2.41-.36s1.5,0,2.67.36c1.95.57,3.19,1.44,3.25,3.23.07,1.44-.39,2.16-1.76,2.73-.91.36-2.28.43-4.3.65-3.71.43-7.16,1.08-9.63,1.94-2.63.85-10.33,10.27-14.35,12.75-.07.04-.05.15.03.18,8.96,3.07,5.28-10.04,9.22-13.94.06-.06.03-.16-.05-.16-2.65-.25-5.11-1.31-6.89-2.78-1.69-1.44-3.06-4.31-3.06-5.53,0-.5.2-.72.52-.72.26,0,.52.36.72.65ZM120.17,108.38c1.76,1.51,2.41,2.8,2.41,4.31,0,1.15-.72,2.51-2.15,2.51-.72,0-1.5-.22-2.21-1.65-1.37-2.73-2.41-4.38-4.1-6.32-.26-.29-.72-.65-.72-.93s.13-.36.33-.43c.26-.07.85-.07,1.04,0,2.08.43,3.97,1.29,5.4,2.51ZM126.16,103.57c1.3.93,2.34,2.08,2.34,3.66s-.91,2.66-2.02,2.66c-.98,0-1.69-.29-2.41-1.58-1.37-2.51-2.73-4.1-4.56-5.6-.26-.22-.78-.57-.78-.86,0-.22.06-.36.2-.43.26-.14.52-.14,1.04-.07,2.34.29,4.1.79,6.18,2.23Z"/>
        <path d="M178.65,141.5c1.5,1.15,2.08,2.44,2.08,3.52,0,1.22-.39,2.16-.85,2.66-.46.5-1.5.79-2.21.79s-1.43-.14-2.99-1.36c-1.95-1.51-3.71-3.38-7.35-5.53-2.93,6.68-6.38,11.28-10.09,14.58-1.69,1.51-3.91,3.09-8.01,4.96-1.5.72-3.38,1.37-3.97,1.37-.39,0-.65-.07-.65-.57,0-.36.07-.65.59-.93,1.3-.79,2.47-1.37,3.32-2.01,4.75-3.66,6.25-5.46,8.66-8.91,2.15-3.02,3.97-7.04,5.4-10.92-5.01-2.3-10.15-3.74-15.36-4.38-2.6,5.46-6.09,11.77-7.09,12.36-1.33.78-1.64.85-3.64.36-1.32-.32-7.03-10.2-2.99-13,2.86-1.94,6.38-3.02,10.48-3.23,2.99-7.4,5.27-14.44,6.96-20.47.13-.5-.39-.65-.85-.5-4.69,1.8-6.7,2.87-7.55,3.66-.65.57-1.37.79-1.82.79-.78,0-2.02-.57-2.93-1.87-1.24-1.72-2.47-4.09-2.47-5.24,0-.57.07-1.29.46-1.94.2-.36.52-.86.85-.86.39,0,.59.5.98,1.29.78,1.29,1.43,2.59,3.06,2.59,1.3,0,2.93-.36,6.25-1.37,2.54-.79,4.04-1.8,4.49-2.73.33-.65.91-1.15,1.89-1.15,1.43,0,2.86.93,4.23,1.94.65.5,1.11,1.15,1.11,2.08,0,1.15-.52,1.65-1.63,3.81-.98,1.87-1.95,4.02-3.38,7.61-1.69,4.17-3.06,7.69-5.01,12.5,5.21.36,10.48,1.37,15.36,2.95,1.11-4.38,1.56-7.4,1.56-9.55,0-2.01-.65-2.87-2.73-3.88-.39-.22-.59-.07-.59-.5s1.17-1.58,2.6-1.58c1.11,0,3.32.93,4.88,2.23,2.47,2.01,2.86,2.95,2.86,4.17,0,.79-.26,1.29-.65,1.8-.46.65-.85,1.08-.98,1.72-.72,3.16-1.17,5.03-1.82,7.61,4.36,1.87,7.42,3.45,9.57,5.17ZM134.53,137.04c-2.67,1.65-6.07,3.44-6.02,5.49.03,1.62.88,2.86,1.32,3.21,1.11.89,2.56,1,3.34,1,1.24,0,2.8-.86,4.23-2.73,1.95-2.59,3.51-5.68,5.14-9.34-3.64.22-6.05,1.15-8.01,2.37Z"/>
      </g>
      <g>
        <g>
          <path d="M71.82,35.59c1.04-.31,2.18-.7,3.48-1.13.18-.08.3.35.15.47-1.29.93-2.48,1.75-3.62,2.49v3.78c0,5.41.04,6.89.04,8.76,0,1.01-.15,1.83-.52,2.45-.59,1.01-1.7,1.48-3.48,1.48-.37,0-.55-.23-.59-.82-.07-1.56-.63-1.99-3.48-2.88-.19-.04-.19-.51,0-.51,1.63.12,2.96.19,4.18.19.48,0,.52-.08.52-.58v-9.93c-.7.35-1.41.7-2.07.97-.11.97-.37,1.4-.78,1.4-.44,0-.56-.35-1.81-4.52,1.04-.08,2-.27,2.89-.43l1.78-.35v-8.6h-2.15c-.59,0-1.15.08-1.92.23l-.41-1.44c.92.23,1.63.31,2.33.31h2.15v-4.2c0-2.41-.04-3.19-.19-4.59,3.66.35,4.7.58,4.7,1.25,0,.43-.37.78-1.18,1.05v6.5h.19c1.15-1.71,1.59-2.02,1.85-2.02.33,0,.67.31,1.7,1.4.41.47.7.86.7,1.13s-.11.39-.48.39h-3.96v7.75ZM86.84,35.24c1.11,2.88,2.59,4.75,4.36,6.38,2.07,1.87,4.66,3.35,7.58,4.28.19.04.19.43,0,.43-.96.08-2,1.4-2.48,3.23-.07.27-.22.43-.44.43s-.74-.31-1.37-.82c-2-1.56-3.59-3.62-4.92-5.84-1.22-1.99-2.22-4.2-2.96-6.89.15,8.37.3,14.79.3,15.76,0,1.09-.67,1.63-2.11,1.63-1.11,0-1.55-.39-1.55-1.36,0-1.36.26-7.12.33-12.3-2.81,4.48-7.21,8.25-10.84,9.61-.19.08-.41-.31-.26-.43,3.85-2.92,7.62-8.29,9.84-14.13h-2.92c-.85,0-1.74.08-2.89.23l-.41-1.44c1.29.23,2.29.31,3.25.31h4.07v-7.28h-3.99c-.85,0-1.74.08-2.89.23l-.41-1.44c1.29.23,2.29.31,3.25.31h4.03v-2.69c0-2.41-.11-3.93-.3-5.25,4.73.47,4.85.51,4.85,1.13,0,.47-.33.74-1.22,1.01v5.8h5.14c1.74-2.45,2.18-2.76,2.44-2.76.33,0,.7.31,2.4,1.91.74.74,1.04,1.09,1.04,1.36s-.11.39-.48.39h-10.54v7.28h4.18c1.74-2.45,2.18-2.76,2.44-2.76.33,0,.7.31,2.37,1.91.74.74,1.04,1.09,1.04,1.36s-.11.39-.48.39h-9.47Z"/>
          <path d="M100.89,40.34c-.18.04-.41-.47-.22-.54,4.22-2.02,8.8-5.96,11.65-9.65,1.26-1.6,2.18-3.15,2.59-4.48,3.77,1.28,4.7,1.67,4.7,2.14,0,.43-.15.51-1.41.58,1.78,1.87,3.92,3.39,6.47,4.59,2.92,1.4,6.4,2.37,10.25,2.84.19.04.19.47,0,.51-1.07.16-1.7.93-2.22,2.76-.19.7-.33.93-.63.93-.37,0-1.04-.23-1.89-.62-1.89-.86-4.59-2.49-6.44-3.89-2.33-1.79-4.55-4.2-6.03-6.5-3.74,4.94-9.88,9.07-16.83,11.33ZM123.78,23.91c0,1.28.04,2.18.04,2.57,0,.86-.63,1.25-2.03,1.25-1,0-1.44-.27-1.44-1.05,0-.23.04-.93.04-2.34v-.43h-6.66c.04,1.28.04,2.18.04,2.53,0,.93-.67,1.28-2.03,1.28-1,0-1.44-.31-1.44-1.17,0-.31.07-1.13.07-2.65h-6.58c-.7,0-1.41.08-2.33.23l-.41-1.44c1.11.23,1.92.31,2.74.31h6.62v-.93c0-2.34,0-2.69-.18-3.93,4.29.47,4.7.62,4.7,1.13,0,.35-.33.62-1.18.97v2.76h6.66c0-3.19,0-3.66-.11-4.87,3.96.43,4.55.62,4.55,1.17,0,.31-.22.54-1.07.93v2.76h4.7c1.66-2.06,2.11-2.37,2.37-2.37.33,0,.78.31,2.48,1.67.78.62,1.07.93,1.07,1.21s-.11.39-.48.39h-10.1ZM111.54,45.24c-2.48,3.43-5.47,5.88-9.32,7.55-.19.08-.52-.23-.37-.35,2.11-2.02,3.99-4.48,5.25-6.81.7-1.28,1.22-2.49,1.52-3.62,3.44,1.25,4.4,1.75,4.4,2.26,0,.54-.41.86-1.48.97ZM118.64,40.07c.04,6.27.19,10.59.19,12.07,0,1.01-.7,1.52-2.03,1.52-1.22,0-1.7-.39-1.7-1.32,0-1.17.19-4.63.19-11.68v-.58h-6.32c-.78,0-1.52.08-2.55.23l-.41-1.44c1.18.23,2.11.31,3,.31h6.29c0-3.04-.07-4.2-.22-5.84,4.33.62,4.66.7,4.66,1.25,0,.35-.33.62-1.07.93v3.66h3.59c1.33-1.79,1.78-2.1,2.03-2.1.33,0,.78.31,2.29,1.48.7.54,1,.86,1,1.13s-.11.39-.48.39h-8.43ZM128.89,52.02c-1.22,0-1.44-.27-2.85-3.58-.92-2.02-2.37-3.93-4.18-5.57-.15-.12.11-.39.3-.31,5.84,2.3,8.58,4.59,8.58,7.16,0,1.36-.74,2.3-1.85,2.3Z"/>
        </g>
        <g>
          <path d="M66.79,83.84c0,1.05-.58,1.47-1.94,1.47-1.05,0-1.44-.38-1.44-1.13,0-2.22.15-4.44.15-13.36,0-2.78-.04-5.57-.15-8.39,1.86.79,2.13.94,3.72,1.81h2.02c1.12-1.35,1.44-1.58,1.75-1.58.39,0,.7.23,1.9,1.17.54.45.78.71.78,1.02s-.19.56-.81,1.09v2.6c0,6.81.12,11.66.12,13.21,0,.9-.62,1.39-1.9,1.39-1.16,0-1.47-.45-1.47-1.24v-.87h-2.71v2.82ZM69.51,65.1h-2.71v15.05h2.71v-15.05ZM85.34,83.99c1.01,1.69,2.68,3.16,4.85,4.25,2.33,1.2,5.2,1.92,8.22,2.11.19,0,.19.34,0,.41-1.05.41-1.71,1.28-2.33,2.75-.19.6-.35.75-.66.75-.35,0-1.01-.23-1.78-.53-1.09-.49-2.48-1.17-3.45-1.88-2.71-2.03-4.34-4.14-5.51-7.49-.66,2.26-1.75,4.1-3.41,5.57-2.64,2.37-6.44,3.84-11.99,4.52-.19.04-.35-.34-.16-.41,4.11-1.39,7.21-3.09,9.31-5.19,1.44-1.43,2.4-3.05,2.91-4.85h-5.12c-.81,0-1.63.08-2.72.23l-.43-1.39c1.24.23,2.13.3,3.06.3h5.43c.16-.87.23-1.88.23-3.65,3.41.23,4.65.56,4.65.98,0,.38-.23.6-1.16.83-.04.64-.15,1.24-.27,1.84h7.41c1.67-2.03,2.13-2.33,2.4-2.33.35,0,.74.3,2.37,1.62.7.6,1.01.94,1.01,1.2s-.12.38-.5.38h-12.37ZM80.76,69.88h.78c.97-1.39,1.44-1.69,1.71-1.69.35,0,.74.3,1.67,1.2.43.41.74.71.74.98s-.12.38-.5.38h-4.38l.08,3.88c1.16-.23,2.29-.49,3.34-.75.19-.04.35.34.19.45-1.82,1.28-5.39,2.97-8.8,4.06-.08.94-.31,1.32-.78,1.32-.39,0-.78-.94-1.71-4.06.81,0,1.75-.08,2.71-.19.58-.08,1.2-.15,1.82-.26l-.08-4.44h-.97c-.7,0-1.36.08-2.29.23l-.43-1.39c1.09.23,1.9.3,2.72.3h.93l-.08-4.18h-.74c-.7,0-1.44.08-2.37.23l-.43-1.39c1.12.23,1.94.3,2.79.3h.7v-.08c-.04-2.33-.08-2.78-.23-4.55,3.76.34,4.42.49,4.42,1.02,0,.34-.31.6-1.01.87l.08,2.75h.62c1.09-1.58,1.55-1.88,1.82-1.88.35,0,.74.3,1.86,1.32.5.45.81.79.81,1.05s-.12.38-.5.38h-4.62l.12,4.18ZM91.27,64.12c-.5,8.28-3.1,12.3-9.66,15.13-.19.08-.43-.3-.27-.41,4.62-3.61,6.44-7.79,6.48-14.71-.66,0-1.4.08-2.29.3l-.43-1.51c1.09.26,1.94.34,2.75.34h5.7c1.24-1.28,1.55-1.51,1.86-1.51.39,0,.7.23,2.02,1.28.58.53.81.79.81,1.09,0,.26-.12.38-1.09,1.13-.47,7.07-.66,8.5-1.36,10.76-.35,1.17-.93,2.07-1.71,2.67-.74.53-1.63.83-2.75.83-.66,0-.7-.04-.78-.83-.12-1.39-.89-2.15-2.64-2.48-.19-.04-.12-.49.08-.49,1.78.11,2.64.15,3.22.15.89,0,1.09-.26,1.51-1.92.5-1.96.78-4.21,1.05-9.82h-2.52Z"/>
          <path d="M101.55,81.73c-.19.04-.43-.45-.23-.53,4.42-1.96,9.23-5.76,12.22-9.33,1.32-1.54,2.29-3.05,2.72-4.33,3.96,1.24,4.93,1.62,4.93,2.07,0,.41-.16.49-1.47.56,1.86,1.81,4.11,3.27,6.79,4.44,3.06,1.35,6.71,2.3,10.74,2.75.19.04.19.45,0,.49-1.12.15-1.78.9-2.33,2.67-.19.68-.35.9-.66.9-.39,0-1.09-.23-1.98-.6-1.98-.83-4.81-2.41-6.75-3.76-2.44-1.73-4.77-4.06-6.32-6.28-3.92,4.78-10.36,8.77-17.65,10.95ZM125.56,65.85c0,1.24.04,2.11.04,2.48,0,.83-.66,1.2-2.13,1.2-1.05,0-1.51-.26-1.51-1.02,0-.23.04-.9.04-2.26v-.41h-6.98c.04,1.24.04,2.11.04,2.45,0,.9-.7,1.24-2.13,1.24-1.05,0-1.51-.3-1.51-1.13,0-.3.08-1.09.08-2.56h-6.9c-.74,0-1.47.08-2.44.23l-.43-1.39c1.16.23,2.02.3,2.87.3h6.94v-.9c0-2.26,0-2.6-.19-3.8,4.5.45,4.93.6,4.93,1.09,0,.34-.35.6-1.24.94v2.67h6.98c0-3.09,0-3.54-.12-4.7,4.15.41,4.77.6,4.77,1.13,0,.3-.23.53-1.12.9v2.67h4.93c1.75-1.99,2.21-2.3,2.48-2.3.35,0,.81.3,2.6,1.62.81.6,1.12.9,1.12,1.17s-.12.38-.5.38h-10.59ZM112.72,86.48c-2.6,3.31-5.74,5.68-9.77,7.3-.19.08-.54-.23-.39-.34,2.21-1.96,4.19-4.33,5.51-6.58.74-1.24,1.28-2.41,1.59-3.5,3.61,1.2,4.62,1.69,4.62,2.18,0,.53-.43.83-1.55.94ZM120.17,81.47c.04,6.06.19,10.23.19,11.67,0,.98-.74,1.47-2.13,1.47-1.28,0-1.78-.38-1.78-1.28,0-1.13.19-4.48.19-11.29v-.56h-6.63c-.81,0-1.59.08-2.68.23l-.43-1.39c1.24.23,2.21.3,3.14.3h6.59c0-2.94-.08-4.06-.23-5.64,4.54.6,4.89.68,4.89,1.2,0,.34-.35.6-1.12.9v3.54h3.76c1.4-1.73,1.86-2.03,2.13-2.03.35,0,.81.3,2.4,1.43.74.53,1.05.83,1.05,1.09s-.12.38-.5.38h-8.84ZM130.91,93.02c-1.28,0-1.51-.26-2.99-3.46-.97-1.96-2.48-3.8-4.38-5.38-.16-.11.12-.38.31-.3,6.13,2.22,9,4.44,9,6.92,0,1.32-.78,2.22-1.94,2.22Z"/>
        </g>
      </g>
    </g>
  </g>
</svg>